<?xml version="1.0" encoding="iso-8859-1"?>
<!-- Generator: Adobe Illustrator 19.0.0, SVG Export Plug-In . SVG Version: 6.00 Build 0)  -->
<svg version="1.1" id="Capa_1" xmlns="http://www.w3.org/2000/svg" xmlns:xlink="http://www.w3.org/1999/xlink" x="0px" y="0px"
	 viewBox="0 0 512 512" style="enable-background:new 0 0 512 512;" xml:space="preserve">
<g>
	<g>
		<path d="M355.617,20.16l-0.675-0.285c-5.091-2.142-10.953,0.247-13.095,5.336c-2.143,5.088,0.247,10.952,5.336,13.094l0.641,0.27
			c1.272,0.538,2.593,0.793,3.893,0.793c3.895,0,7.599-2.292,9.213-6.104C363.081,28.179,360.703,22.312,355.617,20.16z"/>
	</g>
</g>
<g>
	<g>
		<path d="M142.55,214.34h-4.8c-4.672,0-8.474-3.802-8.474-8.474v-4.034c0-16.051-13.058-29.108-29.108-29.108
			c-5.023,0-9.111-4.086-9.111-9.111v-29.596c0-5.522-4.476-9.999-9.999-9.999s-9.999,4.476-9.999,9.999v29.596
			c-0.001,16.05,13.057,29.108,29.108,29.108c5.023,0,9.111,4.087,9.111,9.111v4.034c0,15.699,12.772,28.471,28.471,28.471h4.8
			c5.522,0,9.999-4.476,9.999-9.999C152.549,218.816,148.072,214.34,142.55,214.34z"/>
	</g>
</g>
<g>
	<g>
		<path d="M304.518,445.905c-1.86-1.86-4.439-2.93-7.069-2.93c-2.63,0-5.209,1.069-7.069,2.93c-1.86,1.86-2.93,4.439-2.93,7.069
			c0,2.63,1.07,5.209,2.93,7.068c1.86,1.86,4.439,2.931,7.069,2.931c2.63,0,5.209-1.07,7.069-2.931
			c1.86-1.859,2.93-4.438,2.93-7.068C307.447,450.344,306.377,447.765,304.518,445.905z"/>
	</g>
</g>
<g>
	<g>
		<path d="M495.339,165.249c-4.711-12.451-10.393-24.542-17.024-36.137c-2.741-4.792-8.849-6.457-13.643-3.716
			c-4.793,2.742-6.457,8.85-3.716,13.643c3.826,6.692,7.312,13.562,10.449,20.581h-55.393v-32.979l90.988-52.532
			c3.094-1.786,4.999-5.086,4.999-8.659s-1.906-6.873-4.999-8.659L411.013,1.374c-3.094-1.786-6.904-1.786-9.999,0
			c-3.094,1.786-4.999,5.086-4.999,8.659v78.51v32.328v41.071c-24.29,7.056-42.101,29.495-42.101,56.031v5.785
			c0,3.387-2.756,6.142-6.142,6.142h-6.427c-20.399,0-36.995,16.596-36.995,36.995v18.641c0,21.521,17.51,39.031,39.031,39.031
			h24.955c10.431,0,18.917,8.486,18.917,18.918c0,23.476,19.099,42.574,42.575,42.574c1.955,0,3.544,1.59,3.544,3.545v20.131
			c0,0.524,0.052,1.034,0.13,1.536c-41.234,47.089-100.851,77.682-167.536,80.476v-7.46c0-17.963-14.613-32.576-32.576-32.576
			h-57.415c-18.596,0-33.725-15.129-33.725-33.725v-1.231c0-26.118-21.249-47.366-47.367-47.366h-1.23
			c-17.603,0-31.925-14.321-31.926-31.929c0-8.528,3.321-16.546,9.351-22.576c6.03-6.03,14.047-9.352,22.576-9.352h1.021
			c9.281,0,16.831-7.551,16.831-16.832c0-9.557,7.775-17.331,17.331-17.331h65.662c17.483,0,31.706,14.223,31.706,31.706v34.805
			c0,22.399,18.224,40.623,40.623,40.623c11.372,0,20.625,9.253,20.625,20.625v17.853c0,5.521,4.476,9.999,9.999,9.999
			s9.999-4.477,9.999-9.999v-17.853c0-22.399-18.224-40.623-40.623-40.623c-11.373,0-20.625-9.253-20.625-20.625v-34.805
			c0-28.509-23.194-51.703-51.703-51.703h-7.731v-10.174c0-1.969,1.602-3.57,3.571-3.57c23.511,0,42.638-19.126,42.638-42.637
			c0-10.462,8.511-18.974,18.973-18.974h25.003c21.553,0,39.087-17.535,39.087-39.087v-18.676c0-20.428-16.62-37.048-37.048-37.048
			h-10.448c-3.404,0-6.173-2.77-6.173-6.173v-5.796c0-20.116-10.218-37.891-25.734-48.409c6.377-0.52,12.822-0.797,19.331-0.797
			c16.181,0,32.345,1.646,48.044,4.892c5.405,1.118,10.699-2.36,11.816-7.767c1.118-5.407-2.361-10.698-7.769-11.816
			c-17.029-3.521-34.555-5.306-52.093-5.306c-68.371,0-132.649,26.624-180.996,74.971C26.624,123.351,0,187.629,0,256
			s26.624,132.649,74.97,180.996c48.346,48.346,112.624,74.97,180.996,74.97c68.371,0,132.649-26.625,180.995-74.97
			c48.347-48.347,74.971-112.625,74.971-180.996c0-30.488-5.446-60.659-15.93-88.993
			C495.835,166.395,495.613,165.809,495.339,165.249z M416.013,88.542V27.35l65.991,38.1l-65.991,38.1V88.542z M245.966,491.744
			C120.475,486.483,19.997,382.763,19.997,256c0-105.752,69.928-195.478,165.972-225.37c0.566,0.1,1.146,0.161,1.741,0.161h16.215
			c21.199,0,38.446,17.247,38.446,38.446v5.796c0,14.43,11.74,26.171,26.171,26.171h10.448c9.402,0,17.051,7.649,17.051,17.051
			v18.677c0,10.526-8.564,19.089-19.089,19.089h-25.003c-21.488,0-38.971,17.482-38.971,38.971c0,12.483-10.157,22.64-22.641,22.64
			c-12.995,0-23.568,10.573-23.568,23.568v10.172h-37.933c-19.53,0-35.605,15.075-37.199,34.201
			c-13.114,0.497-25.37,5.839-34.7,15.171c-9.807,9.808-15.207,22.847-15.207,36.722c0.002,28.629,23.294,51.92,51.923,51.92h1.23
			c15.091,0,27.368,12.277,27.369,27.368v1.231c0,29.622,24.101,53.722,53.722,53.722h57.415c6.936,0,12.578,5.643,12.578,12.578
			V491.744z M453.029,385.642c-1.888-11.103-11.57-19.585-23.202-19.585c-12.449,0-22.578-10.128-22.578-22.577
			c0-21.458-17.457-38.915-38.914-38.915H343.38c-10.496,0-19.033-8.539-19.033-19.033v-18.641c0-9.373,7.625-16.998,16.998-16.998
			h6.427c14.414,0,26.14-11.726,26.14-26.14v-5.785c0-15.341,9.059-28.601,22.104-34.729v23.766c0,5.522,4.476,9.999,9.999,9.999
			c5.522,0,9.999-4.476,9.999-9.999v-27.389h63.248c8.346,24.462,12.674,50.295,12.674,76.385
			C491.935,303.851,477.604,348.412,453.029,385.642z"/>
	</g>
</g>
<g>
</g>
<g>
</g>
<g>
</g>
<g>
</g>
<g>
</g>
<g>
</g>
<g>
</g>
<g>
</g>
<g>
</g>
<g>
</g>
<g>
</g>
<g>
</g>
<g>
</g>
<g>
</g>
<g>
</g>
</svg>
