<?xml version="1.0" encoding="iso-8859-1"?>
<!-- Generator: Adobe Illustrator 19.0.0, SVG Export Plug-In . SVG Version: 6.00 Build 0)  -->
<svg version="1.1" id="Capa_1" xmlns="http://www.w3.org/2000/svg" xmlns:xlink="http://www.w3.org/1999/xlink" x="0px" y="0px"
	 viewBox="0 0 512.002 512.002" style="enable-background:new 0 0 512.002 512.002;" xml:space="preserve">
<g>
	<g>
		<path d="M506.697,1.171c-3.264-1.735-7.22-1.529-10.287,0.538l-29.122,19.642C455.634,8.263,438.674,0,419.813,0
			c-35.058,0-63.579,28.521-63.579,63.579c0,9.823,2.305,19.491,6.616,28.21l-24.89,16.788L179.64,1.712
			c-3.26-2.201-7.508-2.285-10.854-0.217L4.742,102.948c-2.947,1.822-4.74,5.04-4.74,8.505V502c0,3.628,1.964,6.971,5.133,8.735
			c3.169,1.767,7.046,1.677,10.13-0.232l158.714-98.236l158.715,98.236c1.607,0.995,3.433,1.497,5.264,1.497
			c0.023,0,0.046,0,0.069,0c1.864,0.034,3.698-0.489,5.327-1.497l49.597-30.698c4.696-2.906,6.147-9.069,3.24-13.766
			c-2.907-4.697-9.071-6.146-13.766-3.24l-34.402,21.292V125.914l26.074-17.586l37.831,48.49c1.895,2.429,4.803,3.849,7.883,3.849
			c3.08,0,5.988-1.419,7.883-3.847l41.357-52.984c0.099-0.126,0.193-0.254,0.285-0.384c9.069-11.257,14.055-25.384,14.055-39.873
			c0-9.023-1.901-17.606-5.305-25.388L492,28.806v366.169l-37.277,23.073c-4.696,2.906-6.146,9.069-3.24,13.766
			c1.892,3.058,5.164,4.738,8.512,4.738c1.796,0,3.614-0.483,5.254-1.498l42.014-26.005c2.945-1.822,4.737-5.039,4.737-8.503V10
			C512.002,6.303,509.961,2.906,506.697,1.171z M328.024,484.091l-148.715-92.047c-1.581-0.979-3.404-1.497-5.263-1.497h-0.133
			c-1.859,0-3.682,0.519-5.263,1.497L20.002,484.05V117.026L163.98,27.983v274.501c0,5.522,4.477,10,10,10s10-4.478,10-10V28.77
			L328.024,126V484.091z M453.43,91.313c-0.208,0.252-0.402,0.512-0.582,0.779l-33.033,42.319l-33.527-42.974
			c-0.089-0.119-0.18-0.237-0.275-0.353c-6.397-7.85-9.779-17.361-9.779-27.507C376.234,39.55,395.783,20,419.813,20
			c24.03,0,43.58,19.55,43.58,43.579C463.392,73.688,459.854,83.537,453.43,91.313z"/>
	</g>
</g>
<g>
	<g>
		<path d="M433.133,443.135c-2.923-4.687-9.092-6.115-13.777-3.196l-0.188,0.117c-4.687,2.922-6.118,9.09-3.196,13.776
			c1.896,3.041,5.158,4.711,8.496,4.711c1.807,0,3.635-0.489,5.281-1.515l0.188-0.117
			C434.624,453.989,436.055,447.821,433.133,443.135z"/>
	</g>
</g>
<g>
	<g>
		<path d="M174.046,336.556c-5.523,0-10,4.478-10,10v0.139c0,5.522,4.477,10,10,10c5.523,0,10-4.478,10-10v-0.139
			C184.046,341.033,179.569,336.556,174.046,336.556z"/>
	</g>
</g>
<g>
	<g>
		<path d="M136.867,341.237l-67.865-39.182c-3.094-1.787-6.906-1.787-10,0c-3.094,1.786-5,5.088-5,8.66v42.354v36.011v22.951h-1.168
			c-5.523,0-10,4.478-10,10c0,5.522,4.477,10,10,10H75.17c5.523,0,10-4.478,10-10c0-5.522-4.477-10-10-10h-1.168v-17.178
			l62.865-36.296c3.094-1.786,5-5.088,5-8.66C141.867,346.325,139.961,343.023,136.867,341.237z M74.002,371.76v-18.69v-25.033
			l37.865,21.861L74.002,371.76z"/>
	</g>
</g>
<g>
	<g>
		<path d="M426.882,57.359c-1.86-1.859-4.44-2.92-7.07-2.92s-5.21,1.061-7.07,2.92c-1.86,1.87-2.93,4.44-2.93,7.08
			c0,2.63,1.07,5.2,2.93,7.061c1.86,1.87,4.44,2.939,7.07,2.939s5.21-1.069,7.07-2.939c1.86-1.86,2.93-4.431,2.93-7.061
			C429.812,61.799,428.742,59.229,426.882,57.359z"/>
	</g>
</g>
<g>
	<g>
		<path d="M251.842,163.036c-3.906-3.904-10.237-3.904-14.142,0l-2.698,2.698l-2.698-2.698c-3.905-3.903-10.237-3.904-14.142,0
			c-3.905,3.905-3.906,10.237,0,14.143l9.769,9.77c1.875,1.875,4.419,2.929,7.071,2.929c2.652,0,5.196-1.054,7.071-2.929l9.769-9.77
			C255.747,173.274,255.747,166.942,251.842,163.036z"/>
	</g>
</g>
<g>
	<g>
		<path d="M303.508,188.889c-3.905-3.905-10.237-3.905-14.142,0l-2.698,2.698l-2.698-2.698c-3.905-3.903-10.237-3.904-14.142,0
			c-3.905,3.905-3.906,10.237,0,14.143l9.769,9.77c1.875,1.875,4.419,2.929,7.071,2.929c2.652,0,5.196-1.054,7.071-2.929l9.769-9.77
			C307.413,199.127,307.413,192.795,303.508,188.889z"/>
	</g>
</g>
<g>
	<g>
		<path d="M251.842,223.638c-3.905-3.904-10.237-3.905-14.142,0l-2.698,2.698l-2.698-2.698c-3.905-3.904-10.237-3.904-14.142,0
			c-3.905,3.905-3.905,10.237,0,14.143l9.769,9.769c1.953,1.952,4.512,2.929,7.071,2.929c2.559,0,5.118-0.977,7.071-2.929
			l9.769-9.769C255.747,233.876,255.748,227.544,251.842,223.638z"/>
	</g>
</g>
<g>
	<g>
		<path d="M251.842,102.436c-3.905-3.904-10.237-3.905-14.142,0l-2.698,2.698l-2.698-2.698c-3.905-3.904-10.237-3.904-14.142,0
			c-3.905,3.905-3.905,10.237,0,14.143l9.769,9.769c1.953,1.952,4.512,2.929,7.071,2.929c2.559,0,5.118-0.977,7.071-2.929
			l9.769-9.769C255.747,112.674,255.748,106.342,251.842,102.436z"/>
	</g>
</g>
<g>
	<g>
		<path d="M303.509,249.49c-3.905-3.903-10.238-3.904-14.142,0l-2.698,2.698l-2.698-2.698c-3.905-3.904-10.237-3.904-14.142,0
			c-3.905,3.905-3.905,10.237,0,14.143l9.769,9.769c1.953,1.952,4.512,2.929,7.071,2.929s5.118-0.977,7.071-2.929l9.769-9.769
			C307.414,259.728,307.415,253.396,303.509,249.49z"/>
	</g>
</g>
<g>
	<g>
		<path d="M303.508,128.287c-3.905-3.903-10.237-3.904-14.142,0l-2.698,2.698l-2.698-2.698c-3.905-3.904-10.237-3.904-14.142,0
			c-3.905,3.905-3.905,10.237,0,14.143l9.769,9.769c1.953,1.952,4.512,2.929,7.071,2.929s5.118-0.977,7.071-2.929l9.769-9.769
			C307.413,138.525,307.414,132.193,303.508,128.287z"/>
	</g>
</g>
<g>
	<g>
		<path d="M251.842,284.239c-3.905-3.903-10.237-3.904-14.142,0l-2.698,2.698l-2.698-2.698c-3.905-3.904-10.237-3.904-14.142,0
			c-3.905,3.905-3.905,10.237,0,14.143l9.769,9.769c1.953,1.952,4.512,2.929,7.071,2.929c2.559,0,5.118-0.977,7.071-2.929
			l9.769-9.769C255.747,294.477,255.748,288.145,251.842,284.239z"/>
	</g>
</g>
<g>
	<g>
		<path d="M303.508,310.091c-3.905-3.904-10.237-3.904-14.142,0l-2.698,2.698l-2.698-2.698c-3.905-3.903-10.237-3.904-14.142,0
			c-3.905,3.905-3.906,10.237,0,14.143l9.769,9.77c1.875,1.875,4.419,2.929,7.071,2.929c2.652,0,5.196-1.054,7.071-2.929l9.769-9.77
			C307.413,320.329,307.413,313.997,303.508,310.091z"/>
	</g>
</g>
<g>
	<g>
		<path d="M251.842,346.041c-3.906-3.904-10.237-3.904-14.142,0l-2.698,2.698l-2.698-2.698c-3.905-3.903-10.237-3.904-14.142,0
			c-3.905,3.905-3.906,10.237,0,14.143l9.769,9.77c1.875,1.875,4.419,2.929,7.071,2.929c2.652,0,5.196-1.054,7.071-2.929l9.769-9.77
			C255.747,356.279,255.747,349.947,251.842,346.041z"/>
	</g>
</g>
<g>
	<g>
		<path d="M303.509,371.894c-3.905-3.904-10.238-3.905-14.142,0l-2.698,2.698l-2.698-2.698c-3.905-3.904-10.237-3.904-14.142,0
			c-3.905,3.905-3.905,10.237,0,14.143l9.769,9.769c1.953,1.952,4.512,2.929,7.071,2.929s5.118-0.977,7.071-2.929l9.769-9.769
			C307.414,382.132,307.415,375.8,303.509,371.894z"/>
	</g>
</g>
<g>
	<g>
		<path d="M93.873,181.06l-19.872-19.872v-12.096l0.952,0.952c1.953,1.952,4.512,2.929,7.071,2.929c2.559,0,5.119-0.977,7.071-2.929
			c3.905-3.905,3.905-10.237,0-14.143L71.073,117.88c-3.905-3.904-10.236-3.904-14.142,0l-18.023,18.022
			c-3.905,3.905-3.906,10.237,0,14.143c3.907,3.904,10.238,3.905,14.142,0l0.952-0.952v12.096L34.13,181.061
			c-3.905,3.905-3.905,10.237,0,14.143c3.905,3.904,10.237,3.904,14.143,0l5.729-5.73v16.256c0,5.522,4.477,10,10,10
			c5.523,0,10-4.478,10-10v-16.256l5.729,5.729c1.953,1.952,4.512,2.929,7.071,2.929c2.559,0,5.119-0.977,7.071-2.929
			C97.778,191.298,97.778,184.966,93.873,181.06z"/>
	</g>
</g>
<g>
	<g>
		<path d="M148.599,269.22l-19.872-19.871v-12.096l0.952,0.952c3.905,3.904,10.237,3.904,14.142,0
			c3.905-3.905,3.905-10.237,0-14.143l-18.023-18.022c-3.904-3.906-10.236-3.904-14.142,0l-18.023,18.022
			c-3.905,3.905-3.906,10.236,0,14.143c1.953,1.952,4.512,2.929,7.071,2.929c2.559,0,5.119-0.977,7.071-2.929l0.953-0.953v12.096
			L88.856,269.22c-3.905,3.905-3.905,10.237,0,14.143c3.905,3.904,10.237,3.904,14.143,0l5.729-5.729v16.255c0,5.522,4.477,10,10,10
			s10-4.478,10-10v-16.255l5.729,5.729c1.953,1.952,4.512,2.929,7.071,2.929c2.559,0,5.119-0.977,7.071-2.929
			C152.504,279.458,152.504,273.126,148.599,269.22z"/>
	</g>
</g>
<g>
	<g>
		<path d="M413.923,295.413c-3.905-3.904-10.237-3.904-14.143,0l-6.364,6.364c-3.905,3.905-3.905,10.237,0,14.143
			c1.953,1.952,4.512,2.929,7.071,2.929s5.119-0.977,7.071-2.929l6.364-6.364C417.828,305.65,417.828,299.318,413.923,295.413z"/>
	</g>
</g>
<g>
	<g>
		<path d="M473.422,295.413c-3.905-3.904-10.237-3.904-14.143,0l-6.364,6.364c-3.904,3.906-3.904,10.238,0.001,14.143
			c1.953,1.952,4.512,2.929,7.071,2.929s5.119-0.977,7.071-2.929l6.364-6.364C477.327,305.651,477.327,299.319,473.422,295.413z"/>
	</g>
</g>
<g>
	<g>
		<path d="M387.354,243.429c-3.905-3.904-10.237-3.905-14.142,0.001l-6.364,6.364c-3.905,3.905-3.905,10.236,0,14.142
			c1.953,1.952,4.512,2.929,7.071,2.929s5.119-0.977,7.071-2.929l6.364-6.365C391.26,253.665,391.26,247.334,387.354,243.429z"/>
	</g>
</g>
<g>
	<g>
		<path d="M446.854,243.429c-3.905-3.905-10.236-3.906-14.142,0.001l-6.364,6.364c-3.905,3.905-3.905,10.236,0,14.142
			c1.953,1.952,4.512,2.929,7.071,2.929s5.119-0.977,7.071-2.929l6.364-6.365C450.759,253.666,450.759,247.335,446.854,243.429z"/>
	</g>
</g>
<g>
	<g>
		<path d="M387.355,347.399c-3.904-3.905-10.236-3.905-14.142-0.001l-6.364,6.363c-3.905,3.905-3.906,10.236,0,14.142
			c1.953,1.953,4.512,2.93,7.071,2.93s5.118-0.977,7.071-2.929l6.364-6.363C391.26,357.636,391.261,351.305,387.355,347.399z"/>
	</g>
</g>
<g>
	<g>
		<path d="M446.855,347.399c-3.905-3.905-10.237-3.905-14.142-0.001l-6.364,6.363c-3.905,3.905-3.906,10.236,0,14.142
			c1.953,1.953,4.512,2.93,7.071,2.93s5.118-0.977,7.071-2.929l6.364-6.363C450.76,357.636,450.761,351.305,446.855,347.399z"/>
	</g>
</g>
<g>
	<g>
		<path d="M413.923,191.445c-3.904-3.905-10.237-3.905-14.142-0.001l-6.364,6.363c-3.906,3.904-3.906,10.236-0.001,14.142
			c1.953,1.953,4.512,2.93,7.072,2.93c2.559,0,5.118-0.977,7.07-2.929l6.364-6.363C417.828,201.683,417.828,195.351,413.923,191.445
			z"/>
	</g>
</g>
<g>
	<g>
		<path d="M473.423,191.445c-3.905-3.906-10.237-3.905-14.142-0.001l-6.364,6.363c-3.906,3.904-3.906,10.236-0.001,14.142
			c1.953,1.953,4.512,2.93,7.072,2.93c2.559,0,5.118-0.977,7.07-2.929l6.364-6.363C477.328,201.683,477.328,195.351,473.423,191.445
			z"/>
	</g>
</g>
<g>
</g>
<g>
</g>
<g>
</g>
<g>
</g>
<g>
</g>
<g>
</g>
<g>
</g>
<g>
</g>
<g>
</g>
<g>
</g>
<g>
</g>
<g>
</g>
<g>
</g>
<g>
</g>
<g>
</g>
</svg>
