<?xml version="1.0" encoding="iso-8859-1"?>
<!-- Generator: Adobe Illustrator 19.0.0, SVG Export Plug-In . SVG Version: 6.00 Build 0)  -->
<svg version="1.1" id="Capa_1" xmlns="http://www.w3.org/2000/svg" xmlns:xlink="http://www.w3.org/1999/xlink" x="0px" y="0px"
	 viewBox="0 0 511.995 511.995" style="enable-background:new 0 0 511.995 511.995;" xml:space="preserve">
<g>
	<g>
		<path d="M89.821,375.766c-25.313,0-45.908,20.595-45.908,45.908s20.595,45.908,45.908,45.908
			c25.314,0,45.909-20.595,45.909-45.908S115.134,375.766,89.821,375.766z M89.821,447.623c-14.308,0-25.948-11.64-25.948-25.948
			s11.64-25.948,25.948-25.948c14.308,0,25.948,11.64,25.948,25.948S104.129,447.623,89.821,447.623z"/>
	</g>
</g>
<g>
	<g>
		<path d="M422.179,375.766c-25.314,0-45.908,20.595-45.908,45.908s20.595,45.908,45.908,45.908s45.908-20.595,45.908-45.908
			S447.493,375.766,422.179,375.766z M422.179,447.623c-14.308,0-25.948-11.64-25.948-25.948s11.64-25.948,25.948-25.948
			s25.948,11.64,25.948,25.948S436.487,447.623,422.179,447.623z"/>
	</g>
</g>
<g>
	<g>
		<path d="M509.747,401.618c-1.036-4.54-5.073-7.76-9.73-7.76h-1.4c-0.811-2.221-1.721-4.408-2.726-6.556l0.99-0.99
			c3.292-3.293,3.87-8.424,1.393-12.367c-7.161-11.396-16.969-21.205-28.365-28.365c-3.941-2.476-9.074-1.901-12.367,1.393
			l-0.99,0.989c-2.148-1.006-4.336-1.915-6.556-2.726v-1.4c0-4.657-3.221-8.695-7.76-9.731c-13.103-2.988-27.009-2.988-40.111,0
			c-4.541,1.036-7.76,5.074-7.76,9.731v1.4c-2.221,0.811-4.408,1.721-6.556,2.726l-0.99-0.989
			c-3.291-3.293-8.426-3.871-12.367-1.393c-11.396,7.161-21.205,16.969-28.365,28.365c-2.477,3.942-1.899,9.074,1.393,12.367
			l0.99,0.99c-1.006,2.148-1.915,4.336-2.726,6.556h-1.4c-4.657,0-8.694,3.221-9.73,7.76c-0.758,3.315-1.323,6.683-1.7,10.077
			H179.089c-0.376-3.394-0.942-6.761-1.7-10.077c-1.036-4.54-5.073-7.76-9.73-7.76h-1.4c-0.262-0.718-0.551-1.426-0.833-2.137
			h102.727c5.511,0,9.98-4.469,9.98-9.98c0-5.511-4.469-9.98-9.98-9.98H164.498c-7.014-10.466-16.286-19.483-26.947-26.182
			c-3.941-2.476-9.074-1.901-12.367,1.393l-0.99,0.989c-2.148-1.006-4.335-1.915-6.555-2.725v-1.401c0-4.657-3.222-8.695-7.76-9.731
			c-13.105-2.988-27.008-2.988-40.112,0c-4.54,1.036-7.76,5.074-7.76,9.731v1.4c-2.221,0.811-4.407,1.721-6.555,2.726l-0.99-0.989
			c-3.292-3.293-8.425-3.871-12.367-1.393c-11.396,7.161-21.205,16.969-28.365,28.365c-2.477,3.942-1.899,9.074,1.393,12.367
			l0.99,0.989c-1.006,2.149-1.916,4.337-2.726,6.557h-1.4c-4.657,0-8.694,3.221-9.73,7.76C0.758,408.168,0,414.916,0,421.675
			c0,6.758,0.758,13.507,2.253,20.058c1.036,4.539,5.074,7.758,9.73,7.758h1.4c0.81,2.221,1.721,4.408,2.726,6.557l-0.99,0.989
			c-3.292,3.293-3.87,8.424-1.393,12.367c7.161,11.395,16.968,21.204,28.363,28.365c3.941,2.476,9.074,1.9,12.367-1.393l0.991-0.99
			c2.148,1.006,4.336,1.915,6.556,2.726v1.4c0,4.657,3.221,8.694,7.76,9.73c6.548,1.495,13.295,2.253,20.057,2.253
			s13.51-0.758,20.058-2.253c4.54-1.036,7.76-5.073,7.76-9.73v-1.401c2.221-0.81,4.407-1.72,6.555-2.725l0.99,0.99
			c3.294,3.292,8.425,3.87,12.367,1.393c11.396-7.161,21.205-16.969,28.365-28.365c2.477-3.942,1.899-9.074-1.393-12.367
			l-0.99-0.989c1.006-2.149,1.916-4.337,2.726-6.557h1.4c4.657,0,8.694-3.221,9.73-7.759c0.758-3.315,1.323-6.684,1.7-10.078
			h153.821c0.376,3.394,0.942,6.762,1.7,10.078c1.036,4.539,5.073,7.759,9.73,7.759h1.4c0.811,2.221,1.721,4.408,2.726,6.556
			l-0.99,0.99c-3.292,3.293-3.87,8.424-1.393,12.367c7.161,11.396,16.969,21.205,28.365,28.365c3.94,2.476,9.074,1.9,12.367-1.393
			l0.99-0.99c2.148,1.006,4.336,1.915,6.556,2.726v1.4c0,4.657,3.221,8.694,7.758,9.73c6.548,1.495,13.295,2.253,20.058,2.253
			s13.51-0.758,20.058-2.253c4.539-1.036,7.758-5.073,7.758-9.73v-1.4c2.221-0.811,4.408-1.721,6.556-2.726l0.99,0.99
			c3.294,3.292,8.425,3.87,12.367,1.393c11.396-7.161,21.205-16.969,28.365-28.365c2.477-3.942,1.899-9.074-1.393-12.367l-0.99-0.99
			c1.006-2.148,1.915-4.336,2.726-6.556h1.4c4.657,0,8.694-3.221,9.73-7.759c1.495-6.548,2.253-13.295,2.253-20.058
			C512,414.913,511.243,408.165,509.747,401.618z M159.244,429.531h-0.323c-4.554,0-8.531,3.083-9.666,7.493
			c-1.418,5.511-3.629,10.829-6.569,15.807c-2.316,3.921-1.685,8.913,1.535,12.134l0.236,0.234
			c-3.275,4.098-7.013,7.836-11.112,11.112l-0.235-0.236c-3.222-3.219-8.213-3.85-12.133-1.536
			c-4.978,2.941-10.296,5.152-15.807,6.57c-4.41,1.136-7.492,5.112-7.492,9.666v0.323c-5.207,0.581-10.507,0.581-15.714,0v-0.323
			c0-4.554-3.082-8.53-7.492-9.666c-5.512-1.419-10.83-3.63-15.806-6.569c-3.921-2.316-8.913-1.685-12.133,1.535l-0.237,0.236
			c-4.098-3.276-7.835-7.013-11.111-11.112l0.236-0.234c3.221-3.222,3.851-8.213,1.535-12.134
			c-2.94-4.977-5.151-10.294-6.569-15.807c-1.135-4.41-5.111-7.493-9.666-7.493h-0.323c-0.291-2.604-0.438-5.229-0.438-7.856
			s0.147-5.253,0.438-7.856h0.323c4.554,0,8.531-3.083,9.666-7.493c1.418-5.511,3.629-10.829,6.569-15.806
			c2.316-3.921,1.685-8.913-1.535-12.134l-0.236-0.235c3.274-4.098,7.013-7.836,11.111-11.111l0.236,0.235
			c3.22,3.222,8.213,3.85,12.135,1.536c4.974-2.94,10.292-5.151,15.805-6.57c4.41-1.136,7.492-5.112,7.492-9.666v-0.322
			c5.209-0.583,10.505-0.583,15.714,0v0.322c0,4.554,3.082,8.53,7.492,9.666c5.511,1.418,10.829,3.63,15.806,6.57
			c3.919,2.317,8.914,1.686,12.134-1.536l0.235-0.235c4.097,3.274,7.836,7.012,11.111,11.111l-0.235,0.235
			c-3.221,3.221-3.851,8.213-1.536,12.133c2.942,4.98,5.153,10.298,6.57,15.807c1.135,4.41,5.111,7.493,9.666,7.493h0.323
			c0.29,2.603,0.437,5.228,0.437,7.856C159.682,424.303,159.535,426.927,159.244,429.531z M491.602,429.531h-0.323
			c-4.554,0-8.53,3.082-9.666,7.492c-1.419,5.511-3.63,10.831-6.57,15.808c-2.315,3.921-1.685,8.913,1.536,12.133l0.236,0.234
			c-3.275,4.098-7.013,7.836-11.112,11.112l-0.235-0.236c-3.221-3.219-8.213-3.85-12.133-1.536
			c-4.977,2.94-10.296,5.151-15.808,6.57c-4.41,1.136-7.492,5.112-7.492,9.666v0.323c-5.207,0.581-10.506,0.581-15.713,0v-0.323
			c0-4.554-3.082-8.53-7.492-9.666c-5.511-1.419-10.831-3.63-15.808-6.57c-3.919-2.314-8.911-1.685-12.133,1.536l-0.235,0.236
			c-4.098-3.276-7.836-7.013-11.112-11.112l0.236-0.234c3.221-3.221,3.851-8.213,1.536-12.133c-2.94-4.977-5.151-10.296-6.57-15.808
			c-1.136-4.41-5.112-7.492-9.666-7.492h-0.323c-0.29-2.603-0.437-5.228-0.437-7.856c0-2.629,0.147-5.254,0.437-7.856h0.323
			c4.554,0,8.53-3.082,9.666-7.492c1.419-5.511,3.63-10.831,6.57-15.808c2.315-3.921,1.685-8.913-1.536-12.133l-0.236-0.235
			c3.274-4.098,7.013-7.836,11.111-11.111l0.236,0.235c3.221,3.222,8.213,3.85,12.134,1.536c4.976-2.94,10.294-5.151,15.807-6.57
			c4.41-1.136,7.492-5.112,7.492-9.666v-0.322c5.209-0.583,10.504-0.583,15.713,0v0.322c0,4.554,3.082,8.53,7.492,9.666
			c5.512,1.419,10.831,3.63,15.807,6.57c3.92,2.317,8.914,1.686,12.134-1.536l0.236-0.235c4.097,3.274,7.836,7.012,11.111,11.111
			l-0.236,0.235c-3.221,3.221-3.851,8.213-1.536,12.133c2.94,4.977,5.151,10.296,6.57,15.808c1.136,4.41,5.112,7.492,9.666,7.492
			h0.323c0.29,2.603,0.437,5.228,0.437,7.856C492.039,424.303,491.892,426.927,491.602,429.531z"/>
	</g>
</g>
<g>
	<g>
		<path d="M452.119,261.981h-24.293L352.62,138.85c-11.513-18.851-32.387-30.562-54.477-30.562H106.808
			c-29.167,0-52.895,23.728-52.895,52.895v101.025c-30.14,2.543-53.893,27.87-53.893,58.656v12.987c0,5.51,4.468,9.979,9.98,9.979
			c5.511,0,9.98-4.469,9.98-9.98v-12.987c0-21.462,17.46-38.922,38.922-38.922H167.74c5.667,0,10.993,2.207,14.999,6.214
			l47.252,47.252c1.872,1.871,4.41,2.923,7.057,2.923h96.308c5.511,0,9.98-4.469,9.98-9.98v-46.407h108.783
			c21.462,0,38.922,17.46,38.922,38.922v12.987c0,5.511,4.469,9.98,9.98,9.98c5.511,0,9.98-4.469,9.98-9.98v-12.987
			C511.002,288.396,484.588,261.981,452.119,261.981z M241.182,318.368l-17.299-17.299h21.279c5.51,0,10.69,2.145,14.584,6.041
			l11.258,11.258H241.182z M362.941,261.98l-27.82-27.82l9.41-9.41c3.897-3.897,3.897-10.217,0-14.115
			c-3.898-3.896-10.216-3.896-14.115,0l-32.934,32.934c-3.897,3.897-3.897,10.217,0,14.115c1.949,1.948,4.503,2.923,7.057,2.923
			c2.554,0,5.108-0.975,7.057-2.923l9.41-9.41l13.705,13.705h-1.354c-5.511,0-9.98,4.469-9.98,9.98v46.407h-24.143l-25.371-25.372
			c-7.666-7.666-17.857-11.886-28.699-11.886h-41.241l-7.07-7.07c-7.776-7.776-18.116-12.059-29.114-12.059h-2.683v-39.05
			c0-0.394,0.235-0.745,0.602-0.894l28.327-11.548c0.13-0.053,0.476-0.194,0.902,0.093s0.426,0.661,0.426,0.801v28.222
			c0,5.511,4.469,9.98,9.98,9.98c5.511,0,9.98-4.469,9.98-9.98v-28.222c0-6.98-3.458-13.472-9.252-17.365
			c-5.791-3.893-13.109-4.646-19.573-2.011l-28.325,11.547c-7.914,3.225-13.028,10.831-13.028,19.377v39.05H73.874V161.18
			c0-18.159,14.773-32.933,32.934-32.933h191.334c15.183,0,29.53,8.048,37.443,21.006l68.853,112.727H362.941z"/>
	</g>
</g>
<g>
	<g>
		<path d="M311.468,374.685c-1.855-1.856-4.43-2.924-7.055-2.924c-2.625,0-5.199,1.067-7.056,2.924
			c-1.856,1.856-2.924,4.431-2.924,7.056c0,2.625,1.067,5.2,2.924,7.055c1.856,1.856,4.431,2.925,7.056,2.925
			c2.625,0,5.2-1.068,7.055-2.925c1.856-1.855,2.925-4.43,2.925-7.055C314.393,379.116,313.325,376.542,311.468,374.685z"/>
	</g>
</g>
<g>
	<g>
		<path d="M467.525,33.114C456.205,13.109,434.91,0.501,411.605,0.501c-24.16,0-45.858,13.411-56.827,34.259
			c-4.207-1.195-8.579-1.81-12.978-1.81c-22.748,0-41.801,16.089-46.398,37.483H215.89c-5.511,0-9.98,4.469-9.98,9.98
			c0,5.511,4.469,9.98,9.98,9.98h88.427c5.511,0,9.98-4.469,9.98-9.98c0-15.165,12.337-27.503,27.503-27.503
			c4.695,0,9.332,1.208,13.41,3.493c2.599,1.456,5.714,1.674,8.491,0.598c2.776-1.078,4.928-3.341,5.863-6.17
			c6.009-18.165,22.904-30.369,42.041-30.369c17.587,0,33.514,10.418,40.577,26.543c1.676,3.824,5.557,6.199,9.724,5.959
			c0.541-0.032,1.085-0.054,1.634-0.054c11.647,0,21.626,7.276,25.63,17.523H387.477c-5.511,0-9.98,4.469-9.98,9.98
			c0,5.511,4.469,9.98,9.98,9.98h113.545c5.511,0,9.98-4.469,9.98-9.98C511.002,55.583,491.838,35.145,467.525,33.114z"/>
	</g>
</g>
<g>
	<g>
		<path d="M184.721,73.356c-1.855-1.856-4.43-2.925-7.055-2.925s-5.199,1.069-7.056,2.925c-1.856,1.855-2.924,4.43-2.924,7.055
			c0,2.626,1.067,5.201,2.924,7.056c1.856,1.856,4.431,2.924,7.056,2.924s5.2-1.067,7.055-2.924c1.856-1.855,2.925-4.43,2.925-7.056
			C187.646,77.786,186.578,75.212,184.721,73.356z"/>
	</g>
</g>
<g>
	<g>
		<path d="M212.809,30.442H41.238c-5.511,0-9.98,4.469-9.98,9.98c0,5.511,4.469,9.98,9.98,9.98h171.571
			c5.511,0,9.98-4.469,9.98-9.98C222.789,34.911,218.32,30.442,212.809,30.442z"/>
	</g>
</g>
<g>
</g>
<g>
</g>
<g>
</g>
<g>
</g>
<g>
</g>
<g>
</g>
<g>
</g>
<g>
</g>
<g>
</g>
<g>
</g>
<g>
</g>
<g>
</g>
<g>
</g>
<g>
</g>
<g>
</g>
</svg>
