<?xml version="1.0" encoding="iso-8859-1"?>
<!-- Generator: Adobe Illustrator 19.0.0, SVG Export Plug-In . SVG Version: 6.00 Build 0)  -->
<svg version="1.1" id="Capa_1" xmlns="http://www.w3.org/2000/svg" xmlns:xlink="http://www.w3.org/1999/xlink" x="0px" y="0px"
	 viewBox="0 0 512 512" style="enable-background:new 0 0 512 512;" xml:space="preserve">
<g>
	<g>
		<path d="M43.07,235.115c-1.86-1.86-4.44-2.93-7.07-2.93s-5.21,1.069-7.07,2.93c-1.86,1.86-2.93,4.44-2.93,7.07
			s1.07,5.21,2.93,7.069c1.86,1.86,4.44,2.931,7.07,2.931s5.21-1.07,7.07-2.931c1.86-1.859,2.93-4.439,2.93-7.069
			S44.93,236.974,43.07,235.115z"/>
	</g>
</g>
<g>
	<g>
		<path d="M46,405.711V287.685c0-5.522-4.477-10-10-10s-10,4.478-10,10v118.034c-14.455,0.698-26,12.675-26,27.299v14.667
			c0,5.522,4.477,10,10,10h52.25c5.523,0,10-4.478,10-10v-14.667C72.25,418.31,60.571,406.284,46,405.711z M20,437.685v-4.667
			c0-4.043,3.29-7.333,7.333-7.333h17.583c4.044,0,7.333,3.29,7.333,7.333v4.667H20z"/>
	</g>
</g>
<g>
	<g>
		<path d="M486,405.717V64.315c0-5.522-4.477-10-10-10H36c-5.523,0-10,4.478-10,10v131.869c0,5.522,4.477,10,10,10s10-4.478,10-10
			V74.315h193.813l-84.83,176.919c-0.661,1.378-0.966,2.832-0.974,4.265c-0.001,0.063-0.009,0.123-0.009,0.186
			c0,48.578,34.136,89.326,79.679,99.533c5.704,25.575-9.075,43.891-17.682,52.056c-2.586-3.435-5.229-9.493-4.255-19.485
			c0.383-3.925-1.576-7.707-5.002-9.659c-3.425-1.952-7.679-1.708-10.859,0.62c-15.818,11.584-26.76,32.765-30.69,58.936H102
			c-5.523,0-10,4.478-10,10c0,5.522,4.477,10,10,10h308c5.523,0,10-4.478,10-10c0-5.522-4.477-10-10-10h-66.071
			c-0.524-1.25-1.075-2.484-1.682-3.677c-7.471-14.68-7.795-31.676-0.89-46.63l6.133-13.284c1.255-2.719,1.226-5.858-0.081-8.554
			s-3.753-4.663-6.666-5.361c-1.225-0.295-12.353-2.76-25.562,1.102c-7.752,2.268-17.095,7.001-25,16.762
			c-3.656-7.482-8.828-15.142-15.899-22.002C321.832,347.399,358,305.688,358,255.685c0-0.063-0.008-0.123-0.009-0.186
			c-0.007-1.433-0.313-2.886-0.974-4.265l-84.83-176.919H466v331.397c-14.571,0.572-26.25,12.597-26.25,27.305v14.667
			c0,5.522,4.477,10,10,10H502c5.523,0,10-4.478,10-10v-14.667C512,418.393,500.455,406.415,486,405.717z M277.688,405.497
			c0.37,4.801,4.107,8.656,8.893,9.175c4.784,0.523,9.263-2.445,10.652-7.056c5.755-19.094,16.715-25.707,25.571-27.753
			c-8.27,18.524-8.53,39.243-0.863,57.82H185.435c1.86-10.644,5.057-20.038,9.369-27.683c5.583,13.861,16.409,19.019,17.065,19.319
			c3.201,1.471,6.942,1.147,9.844-0.852c0.474-0.326,11.702-8.145,20.911-22.119c8.364-12.693,12.514-26.448,12.349-40.568
			C271.052,377.826,276.9,395.252,277.688,405.497z M256,337.685c-41.832,0-76.447-31.482-81.394-72h123.72
			c-4.531,19.18-21.783,33.5-42.327,33.5c-5.523,0-10,4.478-10,10c0,5.522,4.477,10,10,10c31.612,0,57.895-23.221,62.706-53.5
			h18.688C332.447,306.201,297.832,337.685,256,337.685z M332.176,245.684H179.825L256,86.813L332.176,245.684z M459.75,437.685
			v-4.667c0-4.043,3.29-7.333,7.333-7.333h17.583c4.044,0,7.333,3.29,7.333,7.333v4.667H459.75z"/>
	</g>
</g>
<g>
	<g>
		<path d="M264.869,181.873l-3.595-3.595c-1.547-1.547-2.399-3.604-2.399-5.793c0-2.189,0.852-4.247,2.4-5.794
			c3.905-3.906,3.905-10.237,0-14.143c-3.905-3.904-10.237-3.904-14.142,0c-5.325,5.326-8.257,12.405-8.257,19.937
			c0,7.532,2.933,14.61,8.257,19.936l3.594,3.594c3.195,3.194,3.195,8.394,0,11.588c-3.905,3.906-3.905,10.237,0,14.143
			c1.953,1.952,4.512,2.929,7.071,2.929s5.119-0.977,7.071-2.929C275.861,210.753,275.861,192.867,264.869,181.873z"/>
	</g>
</g>
<g>
	<g>
		<path d="M175.821,126.82l-3.594-3.594c-3.195-3.194-3.195-8.394,0-11.588c3.907-3.906,3.906-10.237,0.001-14.142
			c-3.905-3.904-10.237-3.904-14.142,0c-10.992,10.993-10.992,28.88,0,39.873l3.594,3.594c1.547,1.547,2.399,3.604,2.399,5.793
			c0,2.189-0.852,4.247-2.4,5.794c-3.905,3.906-3.905,10.237,0,14.143c1.953,1.952,4.512,2.929,7.071,2.929s5.119-0.977,7.071-2.929
			c5.325-5.326,8.257-12.405,8.257-19.937C184.078,139.224,181.145,132.146,175.821,126.82z"/>
	</g>
</g>
<g>
	<g>
		<path d="M344.239,126.818l-3.594-3.594c-3.195-3.194-3.195-8.394,0-11.588c3.905-3.906,3.905-10.237,0-14.143
			c-3.905-3.904-10.237-3.904-14.142,0c-10.992,10.993-10.992,28.88,0,39.873l3.594,3.594c1.547,1.547,2.399,3.604,2.399,5.793
			c0,2.189-0.852,4.247-2.4,5.794c-3.905,3.908-3.905,10.239,0.001,14.144c1.953,1.952,4.512,2.929,7.071,2.929
			s5.119-0.977,7.071-2.929c5.325-5.326,8.257-12.405,8.257-19.937S349.563,132.145,344.239,126.818z"/>
	</g>
</g>
<g>
	<g>
		<path d="M393.07,302.114c-1.86-1.86-4.44-2.93-7.07-2.93s-5.21,1.069-7.07,2.93c-1.86,1.86-2.93,4.44-2.93,7.07
			s1.07,5.21,2.93,7.069c1.86,1.86,4.44,2.931,7.07,2.931s5.21-1.07,7.07-2.931c1.86-1.859,2.93-4.439,2.93-7.069
			S394.93,303.974,393.07,302.114z"/>
	</g>
</g>
<g>
	<g>
		<path d="M386,339.185c-5.523,0-10,4.477-10,10v39.5c0,5.522,4.477,10,10,10s10-4.478,10-10v-39.5
			C396,343.662,391.523,339.185,386,339.185z"/>
	</g>
</g>
<g>
	<g>
		<path d="M131,334.518c-5.523,0-10,4.478-10,10v53.167c0,5.522,4.477,10,10,10s10-4.478,10-10v-53.167
			C141,338.995,136.523,334.518,131,334.518z"/>
	</g>
</g>
<g>
</g>
<g>
</g>
<g>
</g>
<g>
</g>
<g>
</g>
<g>
</g>
<g>
</g>
<g>
</g>
<g>
</g>
<g>
</g>
<g>
</g>
<g>
</g>
<g>
</g>
<g>
</g>
<g>
</g>
</svg>
