<?xml version="1.0" encoding="iso-8859-1"?>
<!-- Generator: Adobe Illustrator 19.0.0, SVG Export Plug-In . SVG Version: 6.00 Build 0)  -->
<svg version="1.1" id="Capa_1" xmlns="http://www.w3.org/2000/svg" xmlns:xlink="http://www.w3.org/1999/xlink" x="0px" y="0px"
	 viewBox="0 0 512 512" style="enable-background:new 0 0 512 512;" xml:space="preserve">
<g>
	<g>
		<path d="M450.088,178.002c2.655,0,5.201-1.056,7.077-2.935l51.913-51.999c3.897-3.904,3.897-10.227,0-14.131l-51.913-51.999
			c-1.876-1.879-4.422-2.935-7.077-2.935H294.006v-16c0-20.952-17.047-37.999-37.999-37.999s-37.999,17.047-37.999,37.999v199.995
			h-22.999c-5.522,0-10,4.477-10,10s4.478,10,10,10h78.998v83.998H66.073l-41.93-41.999l41.93-41.999h45.604c5.522,0,10-4.477,10-10
			s-4.478-10-10-10H61.926c-2.655,0-5.201,1.056-7.077,2.935L2.937,292.933c-3.897,3.904-3.897,10.227,0,14.131l51.913,51.999
			c1.876,1.879,4.422,2.935,7.077,2.935h156.082v58.95c-15.639-15.848-37.223-25.228-60.303-25.228
			c-32.911,0-62.356,18.872-76.319,47.937c-6.348-2.151-13.041-3.265-19.782-3.265C27.635,440.391,0,468.025,0,501.992
			c0,5.523,4.478,10,10,10l369.004,0.001c5.522,0,10-4.477,10-10v-9.167c0-22.515-18.317-40.832-40.832-40.832h-54.166v-48.684
			c15.658-12.461,35.169-19.315,55.227-19.315c48.948,0,88.769,39.822,88.769,88.769c0,8.955-1.33,17.794-3.953,26.271
			c-1.632,5.276,1.322,10.876,6.599,12.509c0.984,0.305,1.979,0.449,2.958,0.449c4.269,0,8.223-2.755,9.551-7.047
			c3.215-10.395,4.846-21.222,4.846-32.183c0-59.975-48.794-108.768-108.768-108.768c-19.503,0-38.587,5.292-55.228,15.1V178.002
			H450.088z M238.008,38.006c0-9.925,8.075-18,18-18s18,8.075,18,18v16h-35.999V38.006z M238.008,238v-59.998h35.999V238H238.008z
			 M238.008,361.997h35.999v89.997h-35.999V361.997z M123.032,491.993H21.214c4.488-18.128,20.893-31.603,40.388-31.603
			c7.102,0,14.118,1.828,20.29,5.287c2.605,1.459,5.724,1.677,8.507,0.598c2.782-1.081,4.938-3.347,5.875-6.181
			c8.781-26.541,33.468-44.375,61.43-44.375c24.772,0,47.288,14.151,58.12,36.276h-51.983
			C141.607,451.996,123.48,469.863,123.032,491.993z M348.17,471.994c11.209,0,20.378,8.897,20.816,19.999H143.026
			c0.438-11.103,9.608-19.999,20.815-19.999H348.17z M238.008,158.003v-21.999h120.33c5.522,0,10-4.477,10-10s-4.478-10-10-10
			h-120.33V74.005H445.94l41.93,41.999l-41.93,41.999H238.008z"/>
	</g>
</g>
<g>
	<g>
		<path d="M159.409,240.93c-1.859-1.86-4.43-2.93-7.069-2.93c-2.63,0-5.21,1.07-7.07,2.93s-2.93,4.44-2.93,7.07
			c0,2.63,1.069,5.21,2.93,7.07c1.87,1.86,4.44,2.93,7.07,2.93c2.64,0,5.21-1.07,7.069-2.93c1.87-1.86,2.931-4.44,2.931-7.07
			C162.34,245.37,161.279,242.79,159.409,240.93z"/>
	</g>
</g>
<g>
	<g>
		<path d="M409.072,118.934c-1.859-1.86-4.439-2.93-7.069-2.93s-5.21,1.07-7.07,2.93c-1.86,1.86-2.93,4.44-2.93,7.07
			c0,2.64,1.069,5.21,2.93,7.07c1.861,1.86,4.44,2.93,7.07,2.93s5.21-1.07,7.069-2.93c1.86-1.86,2.931-4.43,2.931-7.07
			C412.003,123.374,410.933,120.794,409.072,118.934z"/>
	</g>
</g>
<g>
	<g>
		<path d="M228.008,305.95H136.51c-5.522,0-10,4.477-10,10c0,5.523,4.477,10,10,10h91.498c5.522,0,10-4.477,10-10
			C238.008,310.426,233.53,305.95,228.008,305.95z"/>
	</g>
</g>
<g>
</g>
<g>
</g>
<g>
</g>
<g>
</g>
<g>
</g>
<g>
</g>
<g>
</g>
<g>
</g>
<g>
</g>
<g>
</g>
<g>
</g>
<g>
</g>
<g>
</g>
<g>
</g>
<g>
</g>
</svg>
