<?xml version="1.0" encoding="iso-8859-1"?>
<!-- Generator: Adobe Illustrator 19.0.0, SVG Export Plug-In . SVG Version: 6.00 Build 0)  -->
<svg version="1.1" id="Capa_1" xmlns="http://www.w3.org/2000/svg" xmlns:xlink="http://www.w3.org/1999/xlink" x="0px" y="0px"
	 viewBox="0 0 512 512" style="enable-background:new 0 0 512 512;" xml:space="preserve">
<g>
	<g>
		<path d="M446,297.579V227c0-0.646-0.067-1.275-0.184-1.887C453.569,212.282,458,197.314,458,181.5V130c0-5.523-4.477-10-10-10
			h-11.077C449.916,107.284,458,89.572,458,70c0-38.598-31.402-70-70-70H124C85.402,0,54,31.402,54,70
			c0,19.572,8.084,37.284,21.088,50H64c-5.523,0-10,4.477-10,10v51.5c0,15.814,4.431,30.782,12.184,43.613
			C66.067,225.725,66,226.354,66,227v70.579c-37.136,4.539-66,36.246-66,74.589v64.664C0,478.28,33.72,512,75.168,512h361.664
			C478.28,512,512,478.28,512,436.832v-64.664C512,333.826,483.136,302.118,446,297.579z M397.913,20.991
			C420.751,25.603,438,45.823,438,70s-17.249,44.397-40.087,49.009V20.991z M397.913,140H438v41.5
			c0,26.527-16.278,49.958-40.087,59.697V140z M349.913,20h28v234.475c0,0.021,0,0.042,0,0.062v24.45c0,7.72-6.28,14-14,14
			c-7.72,0-14-6.28-14-14V20z M182.087,140h22.247c5.523,0,10-4.477,10-10s-4.477-10-10-10h-22.247V20h147.826v100h-34.247
			c-5.523,0-10,4.477-10,10s4.477,10,10,10h34.247v106H182.087V140z M134.087,254.537c0-0.021,0-0.042,0-0.062V20h28v258.987
			c0,7.72-6.28,14-14,14c-7.72,0-14-6.28-14-14V254.537z M74,70c0-24.177,17.249-44.397,40.087-49.009v98.019
			C91.249,114.397,74,94.177,74,70z M74,140h40.087v101.197C90.278,231.458,74,208.027,74,181.5V140z M75.168,492
			C44.748,492,20,467.252,20,436.832v-64.664c0-27.296,19.93-50.011,46-54.392V446c0,17.875,7.154,34.103,18.736,46H75.168z
			 M426,446c0,25.364-20.636,46-46,46H132c-25.364,0-46-20.636-46-46V247.69c8.208,6.531,17.697,11.571,28.087,14.7v16.597
			c0,18.748,15.252,34,34,34c18.748,0,34-15.252,34-34V266h147.826v12.987c0,18.748,15.252,34,34,34s34-15.252,34-34V262.39
			c10.39-3.129,19.878-8.169,28.087-14.7V446z M492,436.832c0,30.42-24.748,55.168-55.168,55.168h-9.568
			C438.846,480.103,446,463.875,446,446V317.764c26.071,4.379,46,27.107,46,54.404V436.832z"/>
	</g>
</g>
<g>
	<g>
		<path d="M319.957,323H192.043c-23.135,0-41.957,18.822-41.957,41.957V428c0,22.056,17.944,40,40,40h131.826
			c22.056,0,40-17.944,40-40v-63.043C361.913,341.822,343.091,323,319.957,323z M341.914,428L341.914,428
			c-0.001,11.028-8.973,20-20.001,20H190.087c-11.028,0-20-8.972-20-20v-34.833h99.58c5.523,0,10-4.477,10-10s-4.477-10-10-10
			h-99.58v-8.21c0-12.107,9.85-21.957,21.957-21.957h127.913c12.107,0,21.957,9.85,21.957,21.957V428z"/>
	</g>
</g>
<g>
	<g>
		<path d="M260.74,122.93c-1.86-1.86-4.44-2.93-7.07-2.93c-2.64,0-5.21,1.07-7.07,2.93c-1.87,1.86-2.93,4.44-2.93,7.07
			s1.06,5.21,2.93,7.07c1.86,1.86,4.44,2.93,7.07,2.93s5.21-1.07,7.07-2.93s2.93-4.44,2.93-7.07S262.6,124.79,260.74,122.93z"/>
	</g>
</g>
<g>
	<g>
		<path d="M370.98,207.26c-1.86-1.86-4.44-2.93-7.07-2.93s-5.21,1.07-7.07,2.93c-1.86,1.86-2.93,4.44-2.93,7.07
			c0,2.64,1.07,5.21,2.93,7.07c1.86,1.87,4.44,2.93,7.07,2.93s5.21-1.06,7.07-2.93c1.87-1.86,2.93-4.43,2.93-7.07
			C373.91,211.7,372.85,209.12,370.98,207.26z"/>
	</g>
</g>
<g>
	<g>
		<path d="M370.98,157.26c-1.86-1.86-4.44-2.93-7.07-2.93s-5.21,1.07-7.07,2.93c-1.86,1.86-2.93,4.44-2.93,7.07
			c0,2.64,1.07,5.21,2.93,7.07c1.86,1.87,4.44,2.93,7.07,2.93s5.21-1.06,7.07-2.93c1.87-1.86,2.93-4.44,2.93-7.07
			S372.85,159.13,370.98,157.26z"/>
	</g>
</g>
<g>
	<g>
		<path d="M155.16,207.26c-1.86-1.86-4.44-2.93-7.07-2.93s-5.21,1.07-7.07,2.93c-1.87,1.86-2.93,4.44-2.93,7.07
			c0,2.64,1.06,5.21,2.93,7.07c1.86,1.87,4.44,2.93,7.07,2.93s5.21-1.06,7.07-2.93c1.86-1.86,2.93-4.43,2.93-7.07
			C158.09,211.7,157.02,209.12,155.16,207.26z"/>
	</g>
</g>
<g>
	<g>
		<path d="M155.16,157.26c-1.86-1.86-4.44-2.93-7.07-2.93c-2.64,0-5.21,1.07-7.07,2.93c-1.87,1.87-2.93,4.44-2.93,7.07
			s1.06,5.21,2.93,7.08c1.86,1.86,4.44,2.92,7.07,2.92s5.2-1.06,7.07-2.92c1.86-1.87,2.93-4.44,2.93-7.08
			C158.09,161.7,157.02,159.12,155.16,157.26z"/>
	</g>
</g>
<g>
	<g>
		<path d="M319.57,376.1c-1.86-1.87-4.44-2.93-7.07-2.93s-5.21,1.06-7.07,2.93c-1.86,1.86-2.93,4.44-2.93,7.07s1.07,5.21,2.93,7.07
			s4.44,2.93,7.07,2.93s5.21-1.07,7.07-2.93c1.86-1.86,2.93-4.44,2.93-7.07S321.43,377.96,319.57,376.1z"/>
	</g>
</g>
<g>
	<g>
		<path d="M263.07,412.58c-1.86-1.86-4.44-2.93-7.07-2.93s-5.21,1.07-7.07,2.93s-2.93,4.44-2.93,7.07s1.07,5.21,2.93,7.07
			c1.86,1.87,4.44,2.93,7.07,2.93s5.21-1.06,7.07-2.93c1.86-1.86,2.93-4.44,2.93-7.07S264.93,414.44,263.07,412.58z"/>
	</g>
</g>
<g>
</g>
<g>
</g>
<g>
</g>
<g>
</g>
<g>
</g>
<g>
</g>
<g>
</g>
<g>
</g>
<g>
</g>
<g>
</g>
<g>
</g>
<g>
</g>
<g>
</g>
<g>
</g>
<g>
</g>
</svg>
